<svg width="30" height="30" viewBox="0 0 30 30" fill="none" xmlns="http://www.w3.org/2000/svg">
<rect width="30" height="30" fill="#EDEDED"/>
<g id="desktop-contact-1" clip-path="url(#clip0_2864_3735)">
<rect width="1440" height="2532" transform="translate(-269 -716)" fill="white"/>
<g id="desktop-header-24" clip-path="url(#clip1_2864_3735)">
<rect width="1440" height="882" transform="translate(-269 -716)" fill="white"/>
<g id="container">
<g id="row" clip-path="url(#clip2_2864_3735)">
<g id="col-md-8">
<g id="sm">
<g id="logos:facebook" clip-path="url(#clip3_2864_3735)">
<path id="Vector" d="M28.3443 30.0001C29.2586 30.0001 30 29.2588 30 28.3444V1.65574C30 0.741211 29.2586 0 28.3443 0H1.65574C0.741094 0 0 0.741211 0 1.65574V28.3444C0 29.2588 0.741094 30.0001 1.65574 30.0001H28.3443Z" fill="#252B42"/>
<path id="Vector_2" d="M20.6993 30.0001V18.3824H24.5989L25.1828 13.8549H20.6993V10.9641C20.6993 9.65327 21.0634 8.75995 22.9432 8.75995L25.3407 8.7589V4.70948C24.9259 4.65429 23.5028 4.53101 21.8471 4.53101C18.3903 4.53101 16.0239 6.64097 16.0239 10.5159V13.8549H12.1143V18.3824H16.0239V30.0001H20.6993Z" fill="white"/>
</g>
</g>
</g>
</g>
</g>
</g>
</g>
<defs>
<clipPath id="clip0_2864_3735">
<rect width="1440" height="2532" fill="white" transform="translate(-269 -716)"/>
</clipPath>
<clipPath id="clip1_2864_3735">
<rect width="1440" height="882" fill="white" transform="translate(-269 -716)"/>
</clipPath>
<clipPath id="clip2_2864_3735">
<rect width="1044" height="540" fill="white" transform="translate(-74 -500)"/>
</clipPath>
<clipPath id="clip3_2864_3735">
<rect width="30" height="30.0001" fill="white"/>
</clipPath>
</defs>
</svg>
